<?xml version="1.0" encoding="UTF-8"?>
<svg id="_Слой_2" data-name="Слой 2" xmlns="http://www.w3.org/2000/svg" viewBox="0 0 200.71 300">
  <defs>
    <style>
      .cls-1 {
        fill: #c9f0ff;
      }
    </style>
  </defs>
  <g id="_Слой_1-2" data-name="Слой 1">
    <g>
      <polygon class="cls-1" points="17.06 31.29 25.61 31.29 25.61 7.84 33.01 7.84 33.01 .6 9.66 .6 9.66 7.84 17.06 7.84 17.06 31.29"/>
      <path class="cls-1" d="M45.57,31.89c6.28,0,10.07-3.06,11.78-10.71l-8.29-1.9c-.45,4.13-1.6,5.69-3.5,5.69-2.57,0-4.06-3.08-4.06-9.04s1.48-9.02,4.06-9.02c1.86,0,3.04,1.45,3.5,5.64l8.29-1.94c-1.33-7.61-5.3-10.62-11.78-10.62-9.49,0-12.93,7.4-12.93,15.93s3.44,15.95,12.93,15.95Z"/>
      <path class="cls-1" d="M66.37,21.01h3.93c7.69,0,9.94-4.08,9.94-10.11s-2.18-10.3-10.05-10.3h-11.8v30.69h7.99v-10.28ZM66.35,7.54h2.97c2.14,0,2.97,1.09,2.97,3.12,0,2.39-.88,3.61-3.01,3.61h-2.93v-6.73Z"/>
      <path class="cls-1" d="M104.05,15.93c0-10.26-3.18-15.33-12.53-15.33h-10.47v30.69h10.47c9.36,0,12.53-5.09,12.53-15.35ZM89.21,24.49V7.4h1.86c2.57,0,4.6.45,4.6,8.53s-2.03,8.55-4.6,8.55h-1.86Z"/>
      <path class="cls-1" d="M116.19,31.87c7.05,0,11.11-3.48,11.11-11.91V.6h-8.12v19.96c0,2.72-.64,4.43-2.99,4.43s-2.97-1.8-2.97-4.43V.6h-8.14v19.36c0,8.44,4.08,11.91,11.11,11.91Z"/>
      <path class="cls-1" d="M135.46,12.16h.02c.45,1.79.6,2.35,1.24,4.92l2.18,8.46h3.78l2.18-8.46c.64-2.57.77-3.14,1.22-4.92h.02v19.13h6.28V.6h-8.06l-2.1,8.12c-.51,1.99-1,3.96-1.39,5.88h-.06c-.39-1.92-.88-3.89-1.39-5.88l-2.1-8.12h-8.08v30.69h6.28V12.16Z"/>
      <path class="cls-1" d="M162.65,21.01h3.93c7.69,0,9.94-4.08,9.94-10.11s-2.18-10.3-10.05-10.3h-11.8v30.69h7.99v-10.28ZM162.63,7.54h2.97c2.14,0,2.97,1.09,2.97,3.12,0,2.39-.88,3.61-3.01,3.61h-2.93v-6.73Z"/>
      <path class="cls-1" d="M186.75,24.17c.34-.85.92-1.32,1.67-1.77l4.74-2.88c4.45-2.69,7.12-5.11,7.12-10.18,0-5.6-3.44-9.34-11.09-9.34s-11.89,3.57-12.2,10.73l8.19,1.45c.28-3.7,1.32-5.19,3.5-5.19,1.77,0,2.67,1.01,2.67,3.25,0,2.71-1.84,4.1-3.98,5.36l-2.56,1.5c-6.93,4.15-7.59,6.01-7.59,10.17v4.02h23.49v-7.12h-13.96Z"/>
      <path class="cls-1" d="M22.26,39.8c2.5,0,5.11.96,7.4,2.97l3.14-6.18c-3.06-2.5-6.3-3.5-10.45-3.5-7.82,0-11.67,4.02-11.67,9.62,0,4.89,2.46,7.91,8.01,9.81l1.8.62c2.95,1,3.91,1.5,3.91,2.86,0,1.43-.88,2.22-3.46,2.22-2.91,0-5.52-1.01-7.95-3.12l-3.19,6.16c3.46,2.63,6.97,3.68,11.09,3.68,7.44,0,11.65-3.42,11.65-9.96,0-4.81-1.9-7.35-8.53-9.45l-1.58-.51c-2.44-.79-3.38-1.58-3.38-2.99s.94-2.24,3.21-2.24Z"/>
      <path class="cls-1" d="M45.75,39.99c1.86,0,3.04,1.45,3.5,5.64l8.29-1.94c-1.33-7.61-5.3-10.62-11.78-10.62-9.49,0-12.93,7.4-12.93,15.93s3.44,15.95,12.93,15.95c6.28,0,10.07-3.06,11.78-10.71l-8.29-1.9c-.45,4.13-1.6,5.69-3.5,5.69-2.57,0-4.06-3.08-4.06-9.04s1.48-9.02,4.06-9.02Z"/>
      <path class="cls-1" d="M66.02,53.05h2.33l4.64,11.31h8.59l-5.77-12.67c3.04-1.65,4.49-4.75,4.49-8.74,0-5.99-2.71-9.28-9.66-9.28h-12.44v30.69h7.82v-11.31ZM66.02,40.44h3.57c2.16,0,2.91,1.03,2.91,2.95,0,2.25-.81,3.42-2.95,3.42h-3.53v-6.37Z"/>
      <polygon class="cls-1" points="82.12 57.41 82.12 64.36 103.94 64.36 103.94 57.41 97.27 57.41 97.27 40.61 103.94 40.61 103.94 33.67 82.12 33.67 82.12 40.61 88.77 40.61 88.77 57.41 82.12 57.41"/>
      <path class="cls-1" d="M117.86,33.67h-11.8v30.69h7.99v-10.28h3.93c7.69,0,9.94-4.08,9.94-10.11s-2.18-10.3-10.05-10.3ZM116.95,47.34h-2.93v-6.73h2.97c2.14,0,2.97,1.09,2.97,3.12,0,2.39-.88,3.61-3.01,3.61Z"/>
      <polygon class="cls-1" points="135.78 64.36 144.33 64.36 144.33 40.91 151.73 40.91 151.73 33.67 128.38 33.67 128.38 40.91 135.78 40.91 135.78 64.36"/>
      <polygon class="cls-1" points="32.24 73.68 32.24 66.75 10.43 66.75 10.43 73.68 17.08 73.68 17.08 90.48 10.43 90.48 10.43 97.43 32.24 97.43 32.24 90.48 25.57 90.48 25.57 73.68 32.24 73.68"/>
      <path class="cls-1" d="M45.61,72.87c2.5,0,5.11.96,7.4,2.97l3.14-6.18c-3.06-2.5-6.3-3.5-10.45-3.5-7.82,0-11.67,4.02-11.67,9.62,0,4.89,2.46,7.91,8.01,9.81l1.8.62c2.95,1,3.91,1.5,3.91,2.86,0,1.43-.88,2.22-3.46,2.22-2.91,0-5.52-1.01-7.95-3.12l-3.19,6.16c3.46,2.63,6.97,3.68,11.09,3.68,7.44,0,11.65-3.42,11.65-9.96,0-4.81-1.9-7.35-8.53-9.45l-1.58-.51c-2.44-.79-3.38-1.58-3.38-2.99s.94-2.24,3.21-2.24Z"/>
      <polygon class="cls-1" points="105.5 97.43 105.5 66.75 97.53 66.75 97.53 77.87 91.05 77.87 91.05 66.75 83.08 66.75 83.08 97.43 91.05 97.43 91.05 84.88 97.53 84.88 97.53 97.43 105.5 97.43"/>
      <polygon class="cls-1" points="128.77 73.68 128.77 66.75 107.91 66.75 107.91 97.43 128.77 97.43 128.77 90.48 116.46 90.48 116.46 85.12 127.23 85.12 127.23 78.62 116.46 78.62 116.46 73.68 128.77 73.68"/>
      <path class="cls-1" d="M153.06,76.03c0-5.99-2.71-9.28-9.66-9.28h-12.44v30.69h7.82v-11.31h2.33l4.64,11.31h8.59l-5.77-12.67c3.04-1.65,4.49-4.75,4.49-8.74ZM142.32,79.88h-3.53v-6.37h3.57c2.16,0,2.91,1.03,2.91,2.95,0,2.25-.81,3.42-2.95,3.42Z"/>
      <polygon class="cls-1" points="175.98 73.68 175.98 66.75 155.12 66.75 155.12 97.43 175.98 97.43 175.98 90.48 163.67 90.48 163.67 85.12 174.44 85.12 174.44 78.62 163.67 78.62 163.67 73.68 175.98 73.68"/>
      <path class="cls-1" d="M185.26,98.02c2.69,0,4.68-1.43,4.68-4.08s-1.99-4.17-4.68-4.17-4.68,1.52-4.68,4.17,1.97,4.08,4.68,4.08Z"/>
      <polygon class="cls-1" points="188.81 87.64 189.34 66.75 181.2 66.75 181.72 87.64 188.81 87.64"/>
      <polygon class="cls-1" points="10.81 164.62 93.1 161.78 0 254.49 45.32 300 138.22 206.9 135.38 289.19 200.6 289.38 200.6 99.4 10.81 99.4 10.81 164.62"/>
    </g>
  </g>
</svg>