<?xml version="1.0" encoding="UTF-8"?>
<svg id="_Слой_2" data-name="Слой 2" xmlns="http://www.w3.org/2000/svg" viewBox="0 0 1920 1920">
  <defs>
    <style>
      .cls-1 {
        fill: #fff;
      }

      .cls-2 {
        fill: #606060;
      }
    </style>
  </defs>
  <g id="icon">
    <rect id="BGик_" data-name="BGик&amp;gt;" class="cls-2" x="0" y="0" width="1920" height="1920"/>
    <rect x="0" y="0" width="1920" height="1920"/>
  </g>
  <g id="_Слой_6" data-name="Слой 6">
    <g>
      <path class="cls-1" d="M1477.76,1190.78h-759.18c-26.58,0-48.2-21.62-48.2-48.2v-265.11h192.81c13.31,0,24.1-10.79,24.1-24.1v-144.61c0-13.31-10.79-24.1-24.1-24.1h-192.81v-192.81c0-13.31-10.79-24.1-24.1-24.1h-144.61c-13.31,0-24.1,10.79-24.1,24.1v192.81h-120.5c-13.31,0-24.1,10.79-24.1,24.1v144.61c0,13.31,10.79,24.1,24.1,24.1h120.5v265.11c0,130.68,108.12,236.99,240.88,236.99,0,0,759.26,4.02,759.31,4.02,6.37,0,12.48-2.52,17-7.01,4.55-4.52,7.1-10.67,7.1-17.09v-144.61c0-13.31-10.79-24.1-24.1-24.1Z"/>
      <path class="cls-1" d="M931.48,1170.69h289.21c172.76,0,313.31-140.55,313.31-313.31s-140.55-313.31-313.31-313.31-313.31,140.55-313.31,313.31c0,13.31,10.79,24.1,24.1,24.1h144.61c13.31,0,24.1-10.79,24.1-24.1,0-66.45,54.06-120.5,120.5-120.5s120.5,54.06,120.5,120.5-54.06,120.5-120.5,120.5h-289.21c-13.31,0-24.1,10.79-24.1,24.1v144.61c0,13.31,10.79,24.1,24.1,24.1Z"/>
    </g>
    <g>
      <polygon class="cls-1" points="460.43 1575.16 481.1 1575.16 481.1 1629.07 504.68 1629.07 504.68 1575.16 525.36 1575.16 525.36 1554.9 460.43 1554.9 460.43 1575.16"/>
      <path class="cls-1" d="M567.18,1610.68c-4.09,0-7.1-1.52-9.04-4.57-1.94-3.05-2.91-7.82-2.91-14.33s.92-10.96,2.75-13.97c1.84-3.01,4.66-4.52,8.46-4.52,2.71,0,4.82.71,6.34,2.13,1.52,1.42,2.63,3.76,3.32,7.01l23.47-2.6c-2.9-17.87-13.64-26.8-32.2-26.8-11.77,0-20.89,3.46-27.37,10.39-6.48,6.93-9.71,16.73-9.71,29.4s3.13,21.68,9.4,28.25c6.27,6.58,15.22,9.87,26.85,9.87,10.32,0,18.47-2.65,24.47-7.95,5.99-5.3,9.23-12.73,9.71-22.28h-23.47c-.83,6.65-4.19,9.97-10.08,9.97Z"/>
      <path class="cls-1" d="M637.72,1554.9h-28.77v74.17h22.65v-22.23h6.23c20.29,0,30.44-8.69,30.44-26.07s-10.18-25.87-30.54-25.87ZM644.94,1586.79c-1.42,1.18-3.76,1.76-7.01,1.76h-6.34v-15.37h6.34c3.25,0,5.59.59,7.01,1.76,1.42,1.18,2.13,3.15,2.13,5.92s-.71,4.74-2.13,5.92Z"/>
      <path class="cls-1" d="M706.45,1554.9h-30.44v74.17h30.44c12.53,0,22.11-3.22,28.72-9.66,6.61-6.44,9.92-15.75,9.92-27.94s-3.26-21.07-9.76-27.27c-6.51-6.2-16.14-9.3-28.88-9.3ZM707.28,1609.33h-8.21v-34.69h8.21c9.28,0,13.92,5.71,13.92,17.14s-4.64,17.55-13.92,17.55Z"/>
      <path class="cls-1" d="M795.43,1599.05c0,4.09-.71,7.05-2.13,8.88-1.42,1.84-3.72,2.75-6.91,2.75s-5.49-.92-6.91-2.75c-1.42-1.83-2.13-4.79-2.13-8.88v-44.15h-23.58v43.11c0,21.95,10.77,32.93,32.3,32.93,10.87,0,19.08-2.79,24.62-8.36,5.54-5.57,8.31-13.76,8.31-24.57v-43.11h-23.58v44.15Z"/>
      <polygon class="cls-1" points="871.52 1600.09 857.81 1554.9 830.8 1554.9 830.8 1629.07 851.88 1629.07 851.88 1592.3 862.89 1629.07 879.52 1629.07 890.53 1592.3 890.53 1629.07 912.13 1629.07 912.13 1554.9 885.23 1554.9 871.52 1600.09"/>
      <path class="cls-1" d="M953.26,1554.9h-28.77v74.17h22.65v-22.23h6.23c20.29,0,30.44-8.69,30.44-26.07s-10.18-25.87-30.54-25.87ZM960.48,1586.79c-1.42,1.18-3.76,1.76-7.01,1.76h-6.34v-15.37h6.34c3.25,0,5.59.59,7.01,1.76,1.42,1.18,2.13,3.15,2.13,5.92s-.71,4.74-2.13,5.92Z"/>
      <path class="cls-1" d="M1027.42,1606.16c1.8-1.56,3.43-3.06,4.88-4.52,3.05-2.98,5.46-5.69,7.22-8.15,1.77-2.46,3.05-4.94,3.84-7.43.8-2.49,1.19-5.19,1.19-8.1,0-7.13-2.3-12.69-6.91-16.67-4.61-3.98-11.03-5.97-19.27-5.97s-15.06,2.13-20.05,6.39c-4.99,4.26-7.9,10.3-8.73,18.12l21.29,1.97c.35-2.77,1.02-4.76,2.03-5.97,1-1.21,2.48-1.82,4.41-1.82,3.32,0,4.99,1.94,4.99,5.82,0,1.8-.38,3.51-1.14,5.14-.76,1.63-2.18,3.48-4.26,5.56-2.08,2.08-5.06,4.74-8.93,8-1.52,1.31-3.31,2.82-5.35,4.52-2.04,1.7-4.07,3.36-6.08,4.99-2.01,1.63-3.81,3.06-5.4,4.31v16.73h52.77l1.87-18.18h-24.2c2.08-1.59,4.02-3.17,5.82-4.73Z"/>
      <path class="cls-1" d="M1111.98,1582.74l-9.97-2.08c-2.49-.56-4.24-1.2-5.25-1.92-1-.73-1.51-1.71-1.51-2.96,0-3.19,2.66-4.78,8-4.78,2.77,0,4.83.52,6.18,1.56,1.35,1.04,2.34,2.87,2.96,5.51l22.96-2.08c-.69-7.41-3.74-13.09-9.14-17.03-5.4-3.95-12.81-5.92-22.23-5.92-10.04,0-17.83,2.13-23.37,6.39-5.54,4.26-8.31,10.23-8.31,17.92,0,6.16,1.99,11.08,5.97,14.75,3.98,3.67,10.23,6.33,18.75,8l10.08,1.97c2.42.49,4.13,1.14,5.14,1.97,1,.83,1.51,1.97,1.51,3.43,0,3.67-2.81,5.51-8.41,5.51-6.72,0-10.49-2.84-11.32-8.52h-23.27c1.25,17.66,12.29,26.49,33.14,26.49,10.66,0,18.82-2.16,24.46-6.49,5.64-4.33,8.46-10.58,8.46-18.75,0-6.3-1.92-11.23-5.76-14.8-3.84-3.57-10.2-6.28-19.06-8.16Z"/>
      <path class="cls-1" d="M1179.56,1610.68c-4.09,0-7.1-1.52-9.04-4.57-1.94-3.05-2.91-7.82-2.91-14.33s.92-10.96,2.75-13.97c1.83-3.01,4.66-4.52,8.46-4.52,2.7,0,4.81.71,6.34,2.13,1.52,1.42,2.63,3.76,3.32,7.01l23.48-2.6c-2.91-17.87-13.64-26.8-32.2-26.8-11.77,0-20.9,3.46-27.37,10.39-6.48,6.93-9.71,16.73-9.71,29.4s3.13,21.68,9.4,28.25c6.27,6.58,15.22,9.87,26.85,9.87,10.32,0,18.47-2.65,24.46-7.95,5.99-5.3,9.23-12.73,9.71-22.28h-23.47c-.83,6.65-4.19,9.97-10.08,9.97Z"/>
      <path class="cls-1" d="M1283.22,1579.21c0-8.03-2.54-14.09-7.63-18.18-5.09-4.08-12.59-6.13-22.49-6.13h-31.79v74.17h22.12v-23.79h8.31l11.84,23.79h24.1l-15.37-28.46c7.27-4.64,10.9-11.77,10.9-21.4ZM1258.81,1586.27c-1.52,1.25-4.02,1.87-7.48,1.87h-7.9v-15.79h7.9c3.46,0,5.96.62,7.48,1.87,1.52,1.25,2.29,3.26,2.29,6.02s-.76,4.78-2.29,6.03Z"/>
      <rect class="cls-1" x="1293.88" y="1554.9" width="23.58" height="74.17"/>
      <path class="cls-1" d="M1358.5,1554.9h-28.77v74.17h22.65v-22.23h6.23c20.29,0,30.44-8.69,30.44-26.07s-10.18-25.87-30.54-25.87ZM1365.72,1586.79c-1.42,1.18-3.76,1.76-7.01,1.76h-6.34v-15.37h6.34c3.25,0,5.59.59,7.01,1.76,1.42,1.18,2.13,3.15,2.13,5.92s-.71,4.74-2.13,5.92Z"/>
      <polygon class="cls-1" points="1394.65 1554.9 1394.65 1575.16 1415.32 1575.16 1415.32 1629.07 1438.9 1629.07 1438.9 1575.16 1459.57 1575.16 1459.57 1554.9 1394.65 1554.9"/>
    </g>
  </g>
</svg>
