<?xml version="1.0" encoding="UTF-8"?>
<svg id="_Слой_2" data-name="Слой 2" xmlns="http://www.w3.org/2000/svg" viewBox="0 0 626 914">
  <defs>
    <style>
      .cls-1 {
        fill: #ff0b01;
      }

      .cls-2 {
        fill: #0c9ed9;
      }

      .cls-3 {
        fill: #fff;
      }

      .cls-4 {
        fill: #0b9dd8;
      }
    </style>
  </defs>
  <g id="_Слой_1-2" data-name="Слой 1">
    <g>
      <rect class="cls-3" width="626" height="914"/>
      <polygon class="cls-2" points="60.33 348.75 60.33 517.36 277.68 517.36 .29 794.75 119.52 913.98 396.9 636.6 396.9 853.93 565.52 853.93 565.52 517.36 565.52 348.75 396.9 348.75 60.33 348.75"/>
      <polygon class="cls-1" points="79.23 141.54 101.87 141.54 101.87 79.42 121.48 79.42 121.48 60.26 59.62 60.26 59.62 79.42 79.23 79.42 79.23 141.54"/>
      <path class="cls-1" d="M154.76,143.13c16.62,0,26.68-8.11,31.21-28.37l-21.95-5.03c-1.19,10.95-4.23,15.08-9.26,15.08-6.82,0-10.75-8.16-10.75-23.94s3.93-23.89,10.75-23.89c4.93,0,8.06,3.83,9.26,14.93l21.95-5.13c-3.53-20.16-14.04-28.12-31.21-28.12-25.14,0-34.24,19.61-34.24,42.21s9.11,42.26,34.24,42.26Z"/>
      <path class="cls-1" d="M209.85,114.31h10.4c20.36,0,26.33-10.8,26.33-26.78s-5.77-27.28-26.63-27.28h-31.26v81.28h21.15v-27.23ZM209.81,78.62h7.86c5.67,0,7.86,2.89,7.86,8.26,0,6.32-2.34,9.56-7.96,9.56h-7.76v-17.82Z"/>
      <path class="cls-1" d="M309.68,100.87c0-27.18-8.41-40.62-33.2-40.62h-27.72v81.28h27.72c24.79,0,33.2-13.49,33.2-40.67ZM270.36,123.52v-45.25h4.93c6.82,0,12.19,1.19,12.19,22.6s-5.38,22.65-12.19,22.65h-4.93Z"/>
      <path class="cls-1" d="M341.83,143.08c18.67,0,29.42-9.21,29.42-31.56v-51.27h-21.5v52.86c0,7.22-1.69,11.75-7.91,11.75s-7.86-4.78-7.86-11.75v-52.86h-21.55v51.27c0,22.35,10.8,31.56,29.42,31.56Z"/>
      <path class="cls-1" d="M392.86,90.87h.05c1.19,4.73,1.59,6.22,3.29,13.04l5.77,22.4h10l5.77-22.4c1.69-6.82,2.04-8.31,3.24-13.04h.05v50.67h16.62V60.26h-21.35l-5.57,21.5c-1.34,5.28-2.64,10.5-3.68,15.58h-.15c-1.05-5.08-2.34-10.3-3.68-15.58l-5.57-21.5h-21.4v81.28h16.62v-50.67Z"/>
      <path class="cls-1" d="M464.89,114.31h10.4c20.36,0,26.33-10.8,26.33-26.78s-5.77-27.28-26.63-27.28h-31.26v81.28h21.15v-27.23ZM464.84,78.62h7.86c5.67,0,7.86,2.89,7.86,8.26,0,6.32-2.34,9.56-7.96,9.56h-7.77v-17.82Z"/>
      <path class="cls-1" d="M533.86,77.18c4.68,0,7.07,2.69,7.07,8.61,0,7.17-4.88,10.85-10.55,14.19l-6.77,3.98c-18.37,11-20.11,15.93-20.11,26.93v10.65h62.22v-18.86h-36.98c.9-2.24,2.44-3.48,4.43-4.68l12.54-7.62c11.8-7.12,18.86-13.54,18.86-26.98,0-14.83-9.11-24.74-29.37-24.74s-31.51,9.46-32.3,28.42l21.7,3.83c.75-9.81,3.48-13.74,9.26-13.74Z"/>
      <path class="cls-1" d="M158.72,164.48c6.62,0,13.54,2.54,19.61,7.87l8.31-16.38c-8.11-6.62-16.67-9.26-27.67-9.26-20.71,0-30.91,10.65-30.91,25.48,0,12.94,6.52,20.96,21.2,25.98l4.78,1.64c7.81,2.64,10.35,3.98,10.35,7.57,0,3.78-2.34,5.87-9.16,5.87-7.71,0-14.63-2.69-21.05-8.26l-8.46,16.33c9.16,6.97,18.47,9.76,29.37,9.76,19.71,0,30.86-9.06,30.86-26.38,0-12.74-5.03-19.46-22.6-25.04l-4.18-1.34c-6.47-2.09-8.96-4.18-8.96-7.91s2.49-5.92,8.51-5.92Z"/>
      <path class="cls-1" d="M220.94,231.13c16.62,0,26.68-8.11,31.21-28.37l-21.95-5.03c-1.19,10.95-4.23,15.08-9.26,15.08-6.82,0-10.75-8.16-10.75-23.94s3.93-23.89,10.75-23.89c4.93,0,8.06,3.83,9.26,14.93l21.95-5.13c-3.53-20.16-14.04-28.12-31.21-28.12-25.14,0-34.24,19.61-34.24,42.21s9.11,42.26,34.24,42.26Z"/>
      <path class="cls-1" d="M312.47,172.84c0-15.88-7.17-24.59-25.58-24.59h-32.95v81.28h20.71v-29.96h6.17l12.29,29.96h22.75l-15.28-33.55c8.06-4.38,11.9-12.59,11.9-23.15ZM284,183.05h-9.36v-16.87h9.46c5.72,0,7.71,2.74,7.71,7.81,0,5.97-2.14,9.06-7.81,9.06Z"/>
      <polygon class="cls-1" points="317.29 166.62 334.91 166.62 334.91 211.12 317.29 211.12 317.29 229.54 375.08 229.54 375.08 211.12 357.41 211.12 357.41 166.62 375.08 166.62 375.08 148.26 317.29 148.26 317.29 166.62"/>
      <path class="cls-1" d="M411.95,148.26h-31.26v81.28h21.15v-27.23h10.4c20.36,0,26.33-10.8,26.33-26.78s-5.77-27.28-26.63-27.28ZM409.56,184.44h-7.76v-17.82h7.86c5.67,0,7.86,2.89,7.86,8.26,0,6.32-2.34,9.56-7.96,9.56Z"/>
      <polygon class="cls-1" points="459.43 229.54 482.08 229.54 482.08 167.42 501.69 167.42 501.69 148.26 439.82 148.26 439.82 167.42 459.43 167.42 459.43 229.54"/>
      <polygon points="119.44 267.62 119.44 249.26 61.66 249.26 61.66 267.62 79.28 267.62 79.28 312.12 61.66 312.12 61.66 330.54 119.44 330.54 119.44 312.12 101.77 312.12 101.77 267.62 119.44 267.62"/>
      <path d="M154.85,265.48c6.62,0,13.54,2.54,19.61,7.87l8.31-16.38c-8.11-6.62-16.67-9.26-27.67-9.26-20.71,0-30.91,10.65-30.91,25.48,0,12.94,6.52,20.96,21.2,25.98l4.78,1.64c7.81,2.64,10.35,3.98,10.35,7.57,0,3.78-2.34,5.87-9.16,5.87-7.71,0-14.63-2.69-21.05-8.26l-8.46,16.33c9.16,6.97,18.47,9.76,29.37,9.76,19.71,0,30.86-9.06,30.86-26.38,0-12.74-5.03-19.46-22.6-25.04l-4.18-1.34c-6.47-2.09-8.96-4.18-8.96-7.91s2.49-5.92,8.51-5.92Z"/>
      <polygon points="379.21 330.54 379.21 249.26 358.1 249.26 358.1 278.72 340.93 278.72 340.93 249.26 319.82 249.26 319.82 330.54 340.93 330.54 340.93 297.29 358.1 297.29 358.1 330.54 379.21 330.54"/>
      <polygon points="440.85 267.62 440.85 249.26 385.6 249.26 385.6 330.54 440.85 330.54 440.85 312.12 408.25 312.12 408.25 297.94 436.77 297.94 436.77 280.71 408.25 280.71 408.25 267.62 440.85 267.62"/>
      <path d="M505.21,273.84c0-15.88-7.17-24.59-25.58-24.59h-32.95v81.28h20.71v-29.96h6.17l12.29,29.96h22.75l-15.28-33.55c8.06-4.38,11.9-12.59,11.9-23.15ZM476.74,284.05h-9.36v-16.87h9.46c5.72,0,7.71,2.74,7.71,7.81,0,5.97-2.14,9.06-7.81,9.06Z"/>
      <polygon points="565.91 267.62 565.91 249.26 510.66 249.26 510.66 330.54 565.91 330.54 565.91 312.12 533.31 312.12 533.31 297.94 561.83 297.94 561.83 280.71 533.31 280.71 533.31 267.62 565.91 267.62"/>
      <path class="cls-4" d="M293.79,235.43c1.97,1.36,3,3.72,2.63,6.07l-12.45,80.95c-.29,1.89-1.44,3.54-3.11,4.48s-3.68,1.05-5.45.31l-23.27-9.67-13.33,14.42c-1.73,1.89-4.46,2.51-6.85,1.58s-3.95-3.25-3.95-5.82v-16.27c0-.78.29-1.52.82-2.08l32.61-35.59c1.13-1.23,1.09-3.11-.08-4.28s-3.06-1.25-4.28-.14l-39.58,35.16-17.18-8.6c-2.06-1.03-3.39-3.09-3.44-5.39s1.15-4.44,3.13-5.59l87.18-49.82c2.08-1.19,4.65-1.07,6.62.27Z"/>
      <g>
        <path d="M290.39,883.9c0,3.72-2.05,5.9-6.66,5.9h-8.3v-20.41h7.59c4.52,0,6.44,1.56,6.44,5.14,0,2.21-1.06,3.85-2.9,4.44,2.56.34,3.84,2.17,3.84,4.94ZM280.05,877.74h2.41c1.44,0,2.29-.72,2.29-2.45,0-1.46-.6-2.12-2.15-2.12h-2.55v4.57ZM285.66,883.37c0-1.8-.94-2.35-2.24-2.35h-3.37v5h3.32c1.6,0,2.29-.94,2.29-2.65Z"/>
        <path d="M306.67,869.39l-6.16,13.36v7.05h-4.74v-7.05l-6.15-13.36h4.95l3.57,9.02,3.56-9.02h4.96Z"/>
        <path d="M323.57,869.39h5.02l1.56,5.85c.37,1.42.74,2.86,1.05,4.3h.04c.31-1.44.67-2.88,1.05-4.3l1.56-5.85h5.01v20.41h-3.66v-14.41h-.01c-.36,1.4-.56,2.15-1,3.79l-1.79,6.5h-2.36l-1.8-6.5c-.42-1.64-.64-2.39-1-3.79h-.01v14.41h-3.66v-20.41Z"/>
        <path d="M340.31,885.97h4.67v-12.76h-4.67v-3.82h14.02v3.82h-4.67v12.76h4.67v3.82h-14.02v-3.82Z"/>
        <path d="M362.55,881.01l-1.99,2.91v5.87h-4.55v-20.41h4.55v8.5l5.21-8.5h5.44l-5.39,8.13,5.87,12.27h-5.4l-3.75-8.79Z"/>
        <path d="M372.47,869.39h4.44v7.8h5.42v-7.8h4.44v20.41h-4.44v-8.69h-5.42v8.69h-4.44v-20.41Z"/>
        <path d="M398.88,885.73h-5.76l-.95,4.06h-4.62l5.04-20.41h6.84l5.04,20.41h-4.62l-.95-4.06ZM398,881.96l-.4-1.69c-.56-2.41-.97-4.34-1.56-7.24h-.09c-.59,2.9-1,4.82-1.56,7.24l-.4,1.69h4.01Z"/>
        <path d="M405.29,885.97h4.67v-12.76h-4.67v-3.82h14.02v3.82h-4.67v12.76h4.67v3.82h-14.02v-3.82Z"/>
        <path d="M421.71,869.39h4.72v16.45h8.34v3.96h-13.06v-20.41Z"/>
        <path d="M468.31,883.9c0,3.72-2.05,5.9-6.66,5.9h-8.3v-20.41h7.59c4.52,0,6.44,1.56,6.44,5.14,0,2.21-1.06,3.85-2.9,4.44,2.56.34,3.84,2.17,3.84,4.94ZM457.96,877.74h2.41c1.44,0,2.29-.72,2.29-2.45,0-1.46-.6-2.12-2.15-2.12h-2.55v4.57ZM463.57,883.37c0-1.8-.94-2.35-2.24-2.35h-3.37v5h3.32c1.6,0,2.29-.94,2.29-2.65Z"/>
        <path d="M479.54,885.73h-5.76l-.95,4.06h-4.62l5.04-20.41h6.84l5.04,20.41h-4.62l-.95-4.06ZM478.67,881.96l-.4-1.69c-.56-2.41-.97-4.34-1.56-7.24h-.09c-.59,2.9-1,4.82-1.56,7.24l-.4,1.69h4.01Z"/>
        <path d="M496.04,889.8l-3.3-7.77h-2.35v7.77h-4.42v-20.41h7.84c4.61,0,6.42,2.3,6.42,6.15,0,2.69-1,4.76-3.21,5.79l3.92,8.47h-4.9ZM490.39,878.49h2.9c1.82,0,2.5-.97,2.5-2.82,0-1.56-.61-2.49-2.44-2.49h-2.96v5.31Z"/>
        <path d="M502.02,885.97h4.67v-12.76h-4.67v-3.82h14.02v3.82h-4.67v12.76h4.67v3.82h-14.02v-3.82Z"/>
        <path d="M517.78,869.39h5.76l3.41,10.76c.39,1.24.75,2.62,1.15,4.3h.04l.02-15.06h3.79v20.41h-5.76l-3.41-10.76c-.39-1.24-.75-2.62-1.15-4.3h-.04l-.02,15.06h-3.79v-20.41Z"/>
        <path d="M533.44,879.6c0-7.07,2.75-10.6,7.76-10.6s7.75,3.52,7.75,10.6-2.75,10.58-7.75,10.58-7.76-3.52-7.76-10.58ZM544.17,879.6c0-4.75-1.05-6.61-2.97-6.61s-2.99,1.86-2.99,6.61,1.05,6.6,2.99,6.6,2.97-1.86,2.97-6.6Z"/>
        <path d="M548.58,869.39h4.66l2.15,9.3c.44,1.9.98,4.4,1.5,7.04h.07c.52-2.64,1.06-5.14,1.5-7.04l2.15-9.3h4.66l-5.1,20.41h-6.5l-5.1-20.41Z"/>
      </g>
    </g>
  </g>
</svg>
