<?xml version="1.0" encoding="UTF-8"?>
<svg id="_Слой_2" data-name="Слой 2" xmlns="http://www.w3.org/2000/svg" viewBox="0 0 1920 1920">
  <defs>
    <style>
      .cls-1 {
        fill: #fff;
      }

      .cls-2 {
        fill: #606060;
      }
    </style>
  </defs>
  <g id="icon">
    <rect id="BGик_" data-name="BGик&amp;gt;" class="cls-2" x="0" y="0" width="1920" height="1920"/>
    <rect x="0" y="0" width="1920" height="1920"/>
  </g>
  <g id="_Слой_6" data-name="Слой 6">
    <g>
      <path class="cls-1" d="M1477.76,1190.78h-759.18c-26.58,0-48.2-21.62-48.2-48.2v-265.11h192.81c13.31,0,24.1-10.79,24.1-24.1v-144.61c0-13.31-10.79-24.1-24.1-24.1h-192.81v-192.81c0-13.31-10.79-24.1-24.1-24.1h-144.61c-13.31,0-24.1,10.79-24.1,24.1v192.81h-120.5c-13.31,0-24.1,10.79-24.1,24.1v144.61c0,13.31,10.79,24.1,24.1,24.1h120.5v265.11c0,130.68,108.12,236.99,240.88,236.99,0,0,759.26,4.02,759.31,4.02,6.37,0,12.48-2.52,17-7.01,4.55-4.52,7.1-10.67,7.1-17.09v-144.61c0-13.31-10.79-24.1-24.1-24.1Z"/>
      <path class="cls-1" d="M931.48,1170.69h289.21c172.76,0,313.31-140.55,313.31-313.31s-140.55-313.31-313.31-313.31-313.31,140.55-313.31,313.31c0,13.31,10.79,24.1,24.1,24.1h144.61c13.31,0,24.1-10.79,24.1-24.1,0-66.45,54.06-120.5,120.5-120.5s120.5,54.06,120.5,120.5-54.06,120.5-120.5,120.5h-289.21c-13.31,0-24.1,10.79-24.1,24.1v144.61c0,13.31,10.79,24.1,24.1,24.1Z"/>
    </g>
    <g>
      <polygon class="cls-1" points="369.87 1572.11 394.29 1572.11 394.29 1635.79 422.14 1635.79 422.14 1572.11 446.56 1572.11 446.56 1548.18 369.87 1548.18 369.87 1572.11"/>
      <path class="cls-1" d="M495.97,1614.07c-4.83,0-8.39-1.8-10.68-5.4-2.29-3.6-3.44-9.24-3.44-16.93s1.08-12.94,3.25-16.51c2.17-3.56,5.5-5.34,10-5.34,3.2,0,5.69.84,7.49,2.52,1.8,1.68,3.11,4.44,3.93,8.28l27.73-3.07c-3.43-21.11-16.11-31.66-38.04-31.66-13.9,0-24.68,4.09-32.33,12.27-7.65,8.18-11.47,19.76-11.47,34.73s3.7,25.61,11.11,33.38c7.4,7.78,17.98,11.66,31.72,11.66,12.19,0,21.82-3.13,28.9-9.39,7.07-6.26,10.9-15.03,11.47-26.32h-27.73c-.98,7.85-4.95,11.78-11.9,11.78Z"/>
      <path class="cls-1" d="M579.29,1548.18h-33.99v87.61h26.75v-26.26h7.36c23.97,0,35.95-10.26,35.95-30.8s-12.02-30.56-36.08-30.56ZM587.82,1585.85c-1.68,1.39-4.44,2.08-8.28,2.08h-7.49v-18.16h7.49c3.84,0,6.6.69,8.28,2.08,1.67,1.39,2.52,3.72,2.52,6.99s-.84,5.6-2.52,7Z"/>
      <path class="cls-1" d="M660.48,1548.18h-35.95v87.61h35.95c14.81,0,26.11-3.8,33.93-11.41,7.81-7.61,11.72-18.61,11.72-33.01s-3.85-24.89-11.53-32.21c-7.69-7.32-19.06-10.98-34.11-10.98ZM661.47,1612.48h-9.7v-40.98h9.7c10.96,0,16.44,6.75,16.44,20.25s-5.48,20.74-16.44,20.74Z"/>
      <path class="cls-1" d="M765.59,1600.33c0,4.83-.84,8.33-2.52,10.49-1.68,2.17-4.4,3.25-8.16,3.25s-6.48-1.08-8.16-3.25c-1.67-2.16-2.52-5.66-2.52-10.49v-52.15h-27.85v50.92c0,25.93,12.72,38.9,38.16,38.9,12.84,0,22.54-3.29,29.08-9.88,6.55-6.58,9.82-16.25,9.82-29.02v-50.92h-27.86v52.15Z"/>
      <polygon class="cls-1" points="855.48 1601.56 839.28 1548.18 807.37 1548.18 807.37 1635.79 832.28 1635.79 832.28 1592.35 845.29 1635.79 864.93 1635.79 877.93 1592.35 877.93 1635.79 903.45 1635.79 903.45 1548.18 871.67 1548.18 855.48 1601.56"/>
      <path class="cls-1" d="M952.03,1548.18h-33.99v87.61h26.75v-26.26h7.36c23.97,0,35.95-10.26,35.95-30.8s-12.02-30.56-36.08-30.56ZM960.56,1585.85c-1.68,1.39-4.44,2.08-8.28,2.08h-7.49v-18.16h7.49c3.84,0,6.6.69,8.28,2.08,1.67,1.39,2.52,3.72,2.52,6.99s-.84,5.6-2.52,7Z"/>
      <path class="cls-1" d="M1039.64,1608.73c2.13-1.84,4.05-3.62,5.77-5.34,3.6-3.52,6.44-6.73,8.53-9.63,2.09-2.9,3.6-5.83,4.54-8.78.94-2.94,1.41-6.14,1.41-9.57,0-8.42-2.72-14.99-8.16-19.69-5.44-4.7-13.03-7.06-22.76-7.06s-17.79,2.52-23.68,7.55c-5.89,5.03-9.33,12.17-10.31,21.41l25.15,2.33c.41-3.27,1.21-5.62,2.39-7.06,1.18-1.43,2.93-2.15,5.21-2.15,3.93,0,5.89,2.29,5.89,6.87,0,2.13-.45,4.15-1.35,6.07-.9,1.93-2.58,4.11-5.03,6.57-2.45,2.46-5.97,5.6-10.55,9.45-1.8,1.55-3.9,3.33-6.32,5.34-2.41,2-4.8,3.97-7.18,5.89-2.37,1.92-4.5,3.62-6.38,5.09v19.76h62.34l2.21-21.47h-28.59c2.46-1.88,4.75-3.74,6.87-5.58Z"/>
      <path class="cls-1" d="M1139.53,1581.06l-11.78-2.45c-2.95-.66-5.01-1.41-6.2-2.27-1.18-.86-1.78-2.03-1.78-3.49,0-3.76,3.15-5.65,9.45-5.65,3.27,0,5.7.61,7.3,1.84,1.59,1.23,2.76,3.39,3.5,6.5l27.12-2.46c-.82-8.75-4.42-15.46-10.8-20.12-6.38-4.67-15.13-7-26.26-7-11.86,0-21.07,2.52-27.61,7.55-6.55,5.03-9.82,12.09-9.82,21.16,0,7.28,2.35,13.09,7.06,17.43,4.7,4.34,12.09,7.48,22.15,9.45l11.91,2.33c2.86.57,4.88,1.35,6.07,2.33,1.18.98,1.78,2.33,1.78,4.05,0,4.34-3.31,6.5-9.94,6.5-7.94,0-12.39-3.35-13.38-10.06h-27.49c1.47,20.86,14.52,31.29,39.15,31.29,12.6,0,22.23-2.56,28.9-7.67,6.66-5.11,10-12.49,10-22.15,0-7.44-2.27-13.27-6.81-17.48-4.54-4.21-12.05-7.42-22.52-9.63Z"/>
      <path class="cls-1" d="M1219.36,1614.07c-4.83,0-8.39-1.8-10.68-5.4-2.29-3.6-3.44-9.24-3.44-16.93s1.08-12.94,3.25-16.51c2.16-3.56,5.5-5.34,10-5.34,3.19,0,5.69.84,7.49,2.52,1.8,1.68,3.11,4.44,3.93,8.28l27.73-3.07c-3.44-21.11-16.12-31.66-38.04-31.66-13.91,0-24.68,4.09-32.33,12.27-7.65,8.18-11.47,19.76-11.47,34.73s3.7,25.61,11.1,33.38c7.4,7.78,17.98,11.66,31.72,11.66,12.19,0,21.82-3.13,28.9-9.39,7.07-6.26,10.9-15.03,11.47-26.32h-27.73c-.98,7.85-4.95,11.78-11.9,11.78Z"/>
      <path class="cls-1" d="M1341.82,1576.89c0-9.49-3-16.64-9.02-21.47-6.01-4.83-14.87-7.24-26.57-7.24h-37.55v87.61h26.14v-28.1h9.82l13.99,28.1h28.47l-18.16-33.62c8.59-5.48,12.88-13.91,12.88-25.28ZM1312.99,1585.24c-1.8,1.47-4.75,2.21-8.83,2.21h-9.33v-18.65h9.33c4.09,0,7.04.74,8.83,2.21,1.8,1.47,2.7,3.85,2.7,7.11s-.9,5.65-2.7,7.12Z"/>
      <rect class="cls-1" x="1354.41" y="1548.18" width="27.86" height="87.61"/>
      <path class="cls-1" d="M1430.74,1548.18h-33.99v87.61h26.75v-26.26h7.36c23.97,0,35.95-10.26,35.95-30.8s-12.02-30.56-36.07-30.56ZM1439.27,1585.85c-1.68,1.39-4.44,2.08-8.28,2.08h-7.49v-18.16h7.49c3.84,0,6.6.69,8.28,2.08,1.67,1.39,2.52,3.72,2.52,6.99s-.84,5.6-2.52,7Z"/>
      <polygon class="cls-1" points="1473.44 1548.18 1473.44 1572.11 1497.86 1572.11 1497.86 1635.79 1525.72 1635.79 1525.72 1572.11 1550.13 1572.11 1550.13 1548.18 1473.44 1548.18"/>
    </g>
  </g>
</svg>
